<?xml version="1.0" encoding="UTF-8" standalone="no"?>
<!-- Created with Inkscape (http://www.inkscape.org/) -->

<svg
   width="48.922806mm"
   height="48.922806mm"
   viewBox="0 0 48.922805 48.922805"
   version="1.1"
   id="svg1"
   xml:space="preserve"
   inkscape:version="1.4 (e7c3feb100, 2024-10-09)"
   sodipodi:docname="eraser.svg"
   xmlns:inkscape="http://www.inkscape.org/namespaces/inkscape"
   xmlns:sodipodi="http://sodipodi.sourceforge.net/DTD/sodipodi-0.dtd"
   xmlns="http://www.w3.org/2000/svg"
   xmlns:svg="http://www.w3.org/2000/svg"><sodipodi:namedview
     id="namedview1"
     pagecolor="#ffffff"
     bordercolor="#000000"
     borderopacity="0.25"
     inkscape:showpageshadow="2"
     inkscape:pageopacity="0.0"
     inkscape:pagecheckerboard="0"
     inkscape:deskcolor="#d1d1d1"
     inkscape:document-units="mm"
     inkscape:zoom="1.4142136"
     inkscape:cx="141.42135"
     inkscape:cy="263.04372"
     inkscape:window-width="1920"
     inkscape:window-height="1011"
     inkscape:window-x="0"
     inkscape:window-y="0"
     inkscape:window-maximized="1"
     inkscape:current-layer="svg1"
     showguides="true"><sodipodi:guide
       position="25.864568,40.799793"
       orientation="0,-1"
       id="guide1"
       inkscape:locked="false" /></sodipodi:namedview><defs
     id="defs1" /><g
     inkscape:label="Layer 1"
     inkscape:groupmode="layer"
     id="layer1"
     transform="translate(8.4653225,6.9686127)" /><g
     inkscape:groupmode="layer"
     id="layer2"
     inkscape:label="Layer 2"
     transform="translate(8.4653225,6.9686127)" /><g
     id="g1"
     transform="translate(8.4653225,6.9686127)"><path
       style="fill:#000000"
       d="m 5.7654676,34.701762 c -2.17541,-0.79455 -4.1652191,-1.63462 -4.4218088,-1.86682 -0.91926963,-0.83193 -1.05805963,-1.93488 -0.66889967,-5.31559 0.43709967,-3.79713 0.84038967,-4.73562 3.29160847,-7.65989 5.33262,-6.36172 15.5958554,-17.7932996 16.6428454,-18.5374196 1.74761,-1.24205994 2.79874,-1.16896994 7.35432,0.51138 3.82178,1.40968 5.44027,2.4707397 5.43514,3.5632097 -0.009,1.98381 -0.85313,7.1966899 -1.32157,8.1643599 -0.54176,1.11912 -17.832,20.98207 -19.203496,22.0609 -1.15008,0.90465 -2.64007,0.71178 -7.1081394,-0.92013 z m 6.3229294,0.90803 c 0.37001,-0.16858 4.036776,-4.12301 8.148386,-8.78761 11.397,-12.92986 11.25632,-12.75792 11.69295,-14.29045 0.52548,-1.84438 1.05843,-6.5428499 0.8406,-7.4107499 -0.24067,-0.9588997 -1.17309,-1.4704897 -5.61895,-3.0828897 -4.01345,-1.45557997 -4.68475,-1.52243997 -6.08359,-0.60588 -0.58926,0.3861 -4.42287,4.6592497 -16.2848554,18.1519796 -2.3044794,2.62129 -3.3190388,4.4786 -3.5016388,6.41025 -0.0688,0.7276 -0.20729,2.16311 -0.30780967,3.19 -0.28659,2.92804 -0.0301,3.2421 3.77630847,4.62453 1.71539,0.623 3.65467,1.34552 4.30951,1.60561 1.4158394,0.56233 2.1232994,0.60792 3.0290894,0.19521 z m 0.008,-2.20702 c 0.38279,-4.07078 0.492,-4.89479 0.64872,-4.89479 0.23585,0 -0.18046,4.43792 -0.5088,5.42396 -0.22811,0.685 -0.24727,0.6125 -0.13992,-0.52917 z m -4.8087294,-8.02517 c -3.4741,-1.27311 -4.3134297,-1.70894 -4.3134297,-2.2398 0,-0.15307 0.2678897,-0.039 0.5953097,0.25348 0.81809,0.73079 6.7253194,2.8376 7.9057994,2.81959 1.948286,-0.0297 2.889906,-0.89745 11.288486,-10.40289 4.43587,-5.02047 8.23315,-9.4853099 8.4384,-9.9218699 l 0.37319,-0.79375 -0.16342,0.77935 c -0.0899,0.42865 -0.53425,1.20255 -0.98749,1.71979 -0.45324,0.51724 -4.14491,4.7143299 -8.20371,9.3268699 -9.493686,10.78892 -9.13313,10.58467 -14.9331354,8.45923 z"
       id="path18" /><path
       style="fill:#ff0000;fill-opacity:1;stroke:none;stroke-width:0.0656283;stroke-opacity:0"
       d="m 28.309683,17.422112 c 8e-5,-0.0451 0.13298,-1.86401 0.29533,-4.04199 0.16235,-2.17797 0.29518,-3.9669799 0.29518,-3.9755699 0,-0.009 0.41064,-0.48354 0.91253,-1.05544 1.08553,-1.23696 1.4599,-1.82139 1.65103,-2.57739 0.0755,-0.29854 0.12376,-0.5791 0.1073,-0.62347 -0.0165,-0.0444 -0.11798,0.11228 -0.2256,0.34811 -0.1855,0.40651 -0.92222,1.38465 -1.95083,2.59012 l -0.44801,0.52502 0.0412,-0.45939 c 0.0227,-0.25267 0.11879,-1.52258 0.21359,-2.82202 0.0948,-1.2994497 0.18109,-2.3720897 0.19175,-2.3836497 0.0365,-0.0396 0.91795,0.3293 1.72415,0.72161 0.93247,0.45375 1.44204,0.8876397 1.5755,1.3415097 0.28414,0.9663 -0.34543,6.3208899 -0.93376,7.9417199 -0.21414,0.58995 -0.49385,1.02886 -1.29466,2.03158 -0.77238,0.9671 -2.08359,2.52129 -2.12713,2.52129 -0.0153,0 -0.0277,-0.0369 -0.0276,-0.082 z"
       id="path21" /><path
       style="fill:#ff0000;fill-opacity:1;stroke:none;stroke-width:0.0656283;stroke-opacity:0"
       d="m 23.782843,6.4138721 c -2.7243,-1.2564 -4.99832,-2.3128497 -5.05338,-2.3476797 -0.0815,-0.0515 0.0464,-0.22035 0.68743,-0.90765 1.31991,-1.41513 1.64802,-1.71373 2.15774,-1.96369 1.05727,-0.51847997 1.68592,-0.45394997 4.30665,0.44207 1.00361,0.34313 3.41808,1.22231 3.46089,1.26021 0.0182,0.0161 -0.35491,4.9675397 -0.41208,5.4682697 -0.0233,0.20391 -0.0709,0.34216 -0.11666,0.33869 -0.0425,-0.003 -2.30629,-1.03381 -5.03059,-2.29022 z"
       id="path22" /><path
       style="fill:none;fill-opacity:1;stroke:none;stroke-width:0.264583;stroke-opacity:0"
       d="m 29.317213,3.8714924 c -0.004,0.0791 -0.0145,0.15169 -0.0406,0.22623 -0.0296,0.0845 -0.075,0.1615397 -0.11022,0.2436397 -0.0342,0.0799 -0.002,0.0121 -0.029,0.0986 -0.009,0.028 -0.0252,0.0449 -0.029,0.0754 -0.004,0.0353 0,0.0746 0,0.11022 0,0.0515 -0.005,0.10543 0,0.15662 0.004,0.0401 0.006,-0.001 0.0116,0.029 0.003,0.0156 0.003,0.0308 0.006,0.0464 7.9e-4,0.004 0.004,0.008 0.006,0.0116 0.002,0.008 0.004,0.0154 0.006,0.0232 0.004,0.0216 0.002,0.0426 0.006,0.0638 0.004,0.0208 0.0181,0.0374 0.0232,0.058 0.0101,0.0406 0.0191,0.0863 0.0232,0.12762 0.001,0.0115 -0.001,0.0233 0,0.0348 5.3e-4,0.004 0.005,0.007 0.006,0.0116 0.004,0.0224 -0.004,0.0473 0,0.0696 0.004,0.0221 0.006,0.0411 0.006,0.0638"
       id="path26" /><rect
       style="fill:#ff0000;fill-opacity:1;stroke:none;stroke-width:1.58935;stroke-opacity:0"
       id="rect28"
       width="0.57481462"
       height="4.9344258"
       x="-29.699017"
       y="-3.6922517"
       transform="matrix(-0.98948024,-0.14466811,0.05177158,-0.99865895,0,0)" /><path
       style="fill:#ff0000;fill-opacity:1;stroke:none;stroke-width:0.264583;stroke-opacity:0"
       d="m 28.945963,8.2626921 c 0.0161,0.009 0.002,0.19549 0.0232,0.17402 0.0217,-0.0217 -0.0232,-0.13627 -0.0232,-0.17402 0,-0.0319 0.018,-0.0614 0.0232,-0.0928 0.005,-0.0305 0,-0.0619 0,-0.0928 0,-0.0379 0.0228,-0.0712 0.0116,-0.11601 -0.001,-0.005 -0.01,-0.006 -0.0116,-0.0116 -0.005,-0.0153 0,-0.0415 0,-0.058 0,-0.004 -0.001,-0.0153 0,-0.0116 0.0131,0.0392 0.0248,0.25766 0.0116,0.30164 -0.008,0.0282 -0.0232,0.0541 -0.0348,0.0812 z"
       id="path28" /><path
       style="fill:#ff0000;fill-opacity:1;stroke:none;stroke-width:0.264583;stroke-opacity:0"
       d="m 28.913983,8.2311021 0.10232,-0.0279"
       id="path29" /><path
       style="fill:#ff0000;fill-opacity:1;stroke:none;stroke-width:0.264583;stroke-opacity:0"
       d="m 28.980123,8.2579721 c -2.2e-4,0.0151 -0.01,0.0263 -0.0155,0.0393 -8e-4,0.002 -0.004,0.0111 -0.005,0.0124 -2.7e-4,2.7e-4 -5.3e-4,-7.9e-4 -0.001,-10e-4 -2.6e-4,-1.6e-4 -7.9e-4,2.6e-4 -10e-4,0 -0.001,-0.002 2e-4,-0.006 0,-0.008 -2e-4,-0.003 -7.9e-4,-0.006 -0.001,-0.008 -0.001,0.003 -0.006,0.008 -0.003,0.009 0.003,0.001 0.004,-0.006 0.003,-0.009 -4.4e-4,-0.004 -0.004,-0.008 -0.005,-0.012 -0.003,-0.01 -0.002,-0.0274 -0.003,-0.0362 -4.1e-4,-0.005 -0.002,-0.01 -0.002,-0.0145 -5.3e-4,-0.007 0,-0.0139 0,-0.0207 0,-0.002 -3.6e-4,-0.006 0,-0.008 7.3e-4,-0.004 0.003,-0.007 0.004,-0.0103 0.004,-0.0104 0.007,-0.0213 0.0103,-0.032 7.8e-4,-0.003 10e-4,-0.006 0.002,-0.008 0.001,-0.003 0.003,-0.006 0.004,-0.009 0.002,-0.006 0.003,-0.0124 0.004,-0.0186 9.6e-4,-0.004 0.002,-0.008 0.003,-0.0114 0.002,-0.008 0.002,-0.0173 0.003,-0.0258 7e-4,-0.004 0.002,-0.008 0.003,-0.0114 0.002,-0.009 9.1e-4,-0.0197 0.003,-0.0289 6e-4,-0.003 0.002,-0.005 0.003,-0.007 0.002,-0.007 4.3e-4,-0.0131 0.002,-0.0196"
       id="path30" /><path
       style="fill:#ff0000;fill-opacity:1;stroke:none;stroke-width:0.264583;stroke-opacity:0"
       d="m 28.978313,7.9633921 c 0,0.0172 -5.3e-4,-0.006 0.002,0.0117 0.001,0.0119 -5.2e-4,0.0246 0,0.0366 0.002,0.0414 0.002,0.0828 0.002,0.12423 -0.001,0.0603 -0.001,-0.006 -0.003,0.0438 -2.6e-4,0.009 5.3e-4,0.0176 0,0.0263 -2.6e-4,0.005 -0.002,0.0107 -0.003,0.0161 -5.2e-4,0.004 2.5e-4,0.009 0,0.0131 8e-4,0.008 -0.002,0.0146 -0.003,0.0219 -2.6e-4,0.004 2.7e-4,0.009 0,0.0131 -0.001,0.0167 -0.006,0.0334 -0.0102,0.0497 -7.9e-4,0.003 -0.001,0.006 -0.002,0.009 -2e-4,0.002 5.3e-4,0.004 0,0.006 -0.003,0.01 -0.003,-7.9e-4 -0.003,0.004"
       id="path31" /><path
       style="fill:#ff0000;fill-opacity:1;stroke:none;stroke-width:0.264583;stroke-opacity:0"
       d="m 28.997313,8.5041921 c -0.0142,0.003 -5.3e-4,-10e-4 -0.0161,0.009 -0.002,0.001 -0.005,0.002 -0.007,0.003 -0.002,7.9e-4 -0.003,0.002 -0.004,0.003 -0.0276,0.0103 -0.0672,0.005 -0.0935,-0.004 -0.005,-0.002 -0.009,-0.006 -0.0131,-0.009 -0.005,-0.003 -0.01,-0.006 -0.0146,-0.009 -0.01,-0.005 -0.01,-0.002 -0.0161,-0.0102 -0.001,-0.002 -0.002,-0.004 -0.003,-0.006 -0.007,-0.0184 -0.014,-0.0369 -0.0204,-0.0555 -0.003,-0.008 -0.006,-0.0164 -0.007,-0.0248 -0.002,-0.0116 -0.002,-0.0608 -0.002,-0.0658 5.3e-4,-0.006 0.003,-0.0126 0.004,-0.019 8e-4,-0.006 0.003,-0.0346 0.006,-0.0438 0.002,-0.005 0.005,-0.01 0.007,-0.0146 10e-4,-0.003 8e-4,-0.006 0.002,-0.009 0.002,-0.01 0.005,-0.0195 0.007,-0.0292 0.007,-0.0247 0.0165,-0.0557 0.0263,-0.0789 0.003,-0.008 0.009,-0.0141 0.0117,-0.0219 0.003,-0.008 0.003,-0.0177 0.006,-0.0263 0.001,-0.004 0.004,-0.008 0.006,-0.0117 0.002,-0.005 0.004,-0.0106 0.006,-0.0161 0.004,-0.0132 0.001,-0.0127 0.007,-0.0248 0.003,-0.005 0.0205,-0.0313 0.0248,-0.0351 0.002,-0.002 0.005,-0.003 0.007,-0.004 0.0112,-0.007 0.0221,-0.015 0.0336,-0.0219 0.003,-0.002 0.006,-0.004 0.009,-0.006 0.004,-0.002 0.008,-0.002 0.0117,-0.003 0.003,-10e-4 0.005,-0.003 0.007,-0.004 0.005,-0.002 0.007,-5.3e-4 0.0117,-0.002 0.002,-2.7e-4 0.003,-0.002 0.004,-0.002 0.002,0 0.004,0.001 0.006,0.002 0.001,2e-4 0.003,-8e-4 0.004,0 10e-4,7.9e-4 2.6e-4,0.003 0.002,0.004 0.001,0.001 0.003,5.3e-4 0.004,0.002 0.003,0.002 0.005,0.004 0.007,0.007 0.0129,0.0184 0.0149,0.0396 0.019,0.0614 10e-4,0.005 0.003,0.0106 0.003,0.0161 5.3e-4,0.01 -0.001,0.0195 0,0.0292 5.3e-4,0.005 0.004,0.01 0.004,0.0146 0.003,0.0157 5.3e-4,0.0311 0.002,0.0468 2.1e-4,0.003 10e-4,0.007 0.002,0.0102 5.3e-4,0.005 0.001,0.0107 0.002,0.0161 5.3e-4,0.0123 7.9e-4,0.0257 0,0.038 -7.9e-4,0.0162 -10e-4,0.0125 -0.004,0.0278 -0.001,0.007 -0.002,0.0137 -0.003,0.0205 -5.3e-4,0.003 -0.002,0.006 -0.003,0.009 -0.001,0.009 -2.7e-4,0.0177 -0.002,0.0263 -0.002,0.0185 -0.0136,0.0335 -0.019,0.0512 -0.009,0.0307 -0.0123,0.0577 -0.0146,0.0892 7.9e-4,0.007 -0.002,0.0126 -0.003,0.019 -2.7e-4,0.003 2.6e-4,0.006 0,0.009 -1.4e-4,10e-4 -10e-4,0.002 -0.002,0.003 -0.001,0.006 5.3e-4,0.0104 -0.002,0.0161 -7.9e-4,0.002 0.002,0.002 0,0.004 -5.3e-4,10e-4 -0.002,0.002 -0.003,0.003 -0.004,0.006 -0.002,0.0102 -0.002,0.0175 z"
       id="path32" /><path
       style="fill:#ff0000;fill-opacity:1;stroke:none;stroke-width:0.264583;stroke-opacity:0"
       d="m 29.079163,7.9531621 c 0.004,0.0109 0.003,0.0223 0.003,0.0336 0,0.004 10e-4,0.008 0,0.0117 -0.002,0.006 -0.0124,0.021 -0.0146,0.0234 -0.0111,0.0122 -0.0214,0.0258 -0.0351,0.0351 -0.0194,0.013 -0.0421,0.02 -0.0629,0.0307 -0.0197,0.0102 -0.0379,0.0236 -0.0585,0.0322 -0.0412,0.0171 -0.0977,0.0322 -0.14324,0.038 -0.0179,0.002 -0.0361,0.002 -0.0541,0.003 -0.009,8e-4 -0.0186,0.004 -0.0278,0.003 -0.0127,-0.002 -0.0248,-0.0143 -0.0307,-0.0249 -0.02,-0.0356 -0.0262,-0.0767 -0.0117,-0.11546 0.005,-0.0125 0.0201,-0.0214 0.0307,-0.0278 0.0259,-0.0157 0.0523,-0.0276 0.0819,-0.0351 0.0294,-0.007 0.0597,-0.0104 0.0892,-0.0175 0.0172,-0.004 0.0341,-0.01 0.0511,-0.0146 0.0195,-0.005 0.0391,-0.0102 0.0585,-0.0161 0.0143,-0.004 0.028,-0.0106 0.0424,-0.0146 0.0202,-0.006 0.0409,-0.01 0.0614,-0.0146 0.008,-0.002 0.0156,-0.004 0.0234,-0.006 0.004,-10e-4 0.008,-0.002 0.0117,-0.003 0.002,-2.6e-4 0.004,5.3e-4 0.006,0 5.3e-4,-1.2e-4 -2.6e-4,-0.002 0,-0.002 0.004,0.004 0.004,0.0195 0.004,0.0248 0,0.004 0.001,0.009 0,0.0131 -8e-4,0.003 -0.004,0.004 -0.006,0.006 -0.002,0.002 -0.003,0.009 -0.006,0.0102 -0.003,0.001 -0.006,0.001 -0.009,0.003 -5.3e-4,2.6e-4 5.3e-4,10e-4 0,0.002 -0.004,0.001 -0.004,-0.002 -0.007,0.002 -0.001,0.001 -0.002,0.003 -0.003,0.004 -0.001,0.002 -0.005,0.004 -0.006,0.006 -0.002,0.006 -0.002,0.0129 -0.003,0.019 -5.3e-4,0.004 -0.003,0.005 -0.002,0.009 1.5e-4,5.3e-4 0.005,-2.6e-4 0.009,-0.004 0.003,-0.004 0.003,-0.0102 0.007,-0.0131 0.004,-0.003 0.009,5e-5 0.0131,-0.002 0.002,-5.3e-4 0.002,-0.003 0.003,-0.004 7.9e-4,-10e-4 0.003,-0.004 0.002,-0.004 -5.3e-4,0 2.7e-4,0.001 0,0.002 -7.9e-4,7.9e-4 -0.005,0.002 -0.006,0.003 -8e-4,7.9e-4 -5.3e-4,0.002 -0.002,0.003 -0.003,0.002 -0.007,0.002 -0.0102,0.003 z"
       id="path33" /><path
       style="fill:#ff0000;fill-opacity:1;stroke:none;stroke-width:0.264583;stroke-opacity:0"
       d="m 28.715213,8.4618021 c -0.002,-10e-4 0.008,10e-4 0.0146,0.0117 0.001,0.002 0.002,0.005 0.003,0.007 0.001,0.002 0.003,0.003 0.004,0.004 0.009,0.0105 0.0194,0.0194 0.0292,0.0292 0.003,0.003 0.008,0.005 0.0102,0.009 0.002,0.002 0.002,0.005 0.003,0.007 0.003,0.005 0.008,0.008 0.0117,0.0117 0.005,0.006 0.01,0.0118 0.0146,0.0175 0.002,0.002 0.004,0.004 0.006,0.006 0.002,0.003 0.002,0.007 0.004,0.0102 8e-4,10e-4 0.002,0.002 0.003,0.003 5.3e-4,0.002 5.3e-4,0.003 0.002,0.004 0.001,0.002 0.003,0.003 0.004,0.004 0.001,0.002 0.001,0.006 0.003,0.007 0.003,0.003 0.0344,0.003 0.0395,0.003 0.003,0 0.006,0.002 0.007,0.002 0.008,-0.002 0.0156,-0.003 0.0234,-0.003 0.002,0 0.004,-5.3e-4 0.006,0 0.002,5.3e-4 0.003,0.002 0.006,0.002 0.006,-0.002 0.0123,-0.004 0.0175,-0.007 0.002,-10e-4 0.002,-0.004 0.004,-0.006 0.002,-0.001 0.005,-0.001 0.007,-0.003 10e-4,-0.001 0.002,-0.003 0.003,-0.004 0.001,-10e-4 0.003,-8e-4 0.004,-0.002 0.002,-0.001 0.001,-0.003 0.003,-0.004 0.003,-0.003 0.008,-0.005 0.0102,-0.009 10e-4,-0.002 8e-4,-0.007 0.003,-0.009 8e-4,-7.9e-4 0.002,-5.3e-4 0.003,-0.002 0.002,-0.003 10e-4,-0.008 0.003,-0.0117 0.002,-0.005 0.006,-0.009 0.009,-0.0146 10e-4,-0.003 10e-4,-0.006 0.003,-0.009 10e-4,-0.002 0.004,-0.002 0.006,-0.004 0.002,-0.002 -1.1e-4,-0.0341 -0.002,-0.0365 -0.002,-0.003 -0.005,-0.005 -0.007,-0.007 -0.002,-0.002 -0.002,-0.005 -0.003,-0.007 -0.002,-0.004 -0.004,-0.007 -0.006,-0.0102 -0.002,-0.004 -0.002,-0.008 -0.004,-0.0117 -0.003,-0.005 -0.0102,-0.005 -0.0146,-0.007 -0.002,-10e-4 -0.004,-0.003 -0.006,-0.004 -0.009,-0.005 -0.0137,-0.006 -0.0234,-0.006 -0.003,0 -0.006,-7.9e-4 -0.009,0 -0.005,0.001 -0.009,0.004 -0.0131,0.006 -0.004,0.001 -0.0221,0.003 -0.0234,0.003 -0.0121,8e-4 -0.0245,-10e-4 -0.0365,0 -0.003,2.7e-4 -0.006,10e-4 -0.009,0.002 -0.005,5.3e-4 -0.01,-0.001 -0.0146,0 -0.004,10e-4 -0.007,0.005 -0.0117,0.006 -0.002,5.3e-4 -0.005,-2.3e-4 -0.007,0 -0.003,2.6e-4 -0.006,10e-4 -0.009,0.002 -0.004,2.7e-4 -0.008,-5.2e-4 -0.0117,0 -0.002,2.2e-4 -0.003,0.002 -0.004,0.002 -10e-4,0 -0.002,-10e-4 -0.003,-0.002 -0.005,-0.002 -0.0136,0 -0.019,0 -0.009,0 -0.0201,-2.6e-4 -0.0263,0.006 -0.005,0.005 -2e-5,10e-4 -0.002,0.004 -0.002,0.004 -0.006,0.007 -0.006,0.0117 5.3e-4,0.006 0.006,0.01 0.009,0.0146 2.3e-4,5.3e-4 2.7e-4,0.002 0,0.002 -0.003,-0.005 -0.006,-0.0108 -0.009,-0.0161 z"
       id="path34" /><path
       style="fill:#ff0000;fill-opacity:1;stroke:none;stroke-width:0.264583;stroke-opacity:0"
       d="m 28.985613,8.3492621 c 0.003,0.003 0.007,0.005 0.0102,0.009 0.002,0.002 0.003,0.006 0.004,0.009 0.008,0.0152 0.0142,0.0257 0.019,0.0424 0.003,0.009 8e-4,-0.006 0.003,0.009 10e-4,0.008 -0.002,0.0156 -0.002,0.0234 0,0.0112 0.002,0.0273 0,0.038 -5.3e-4,0.003 -0.003,0.005 -0.003,0.007 -5.3e-4,0.004 0.001,0.008 0,0.0117 -10e-4,0.005 -0.004,0.01 -0.006,0.0146 -2.7e-4,10e-4 5.3e-4,0.002 0,0.003 -5.3e-4,8e-4 -0.002,5.3e-4 -0.003,0.002 -1.8e-4,2.7e-4 -0.002,0.009 -0.003,0.0102 -0.002,0.003 -0.004,0.007 -0.006,0.0102 -2.6e-4,7.9e-4 2.4e-4,0.002 0,0.003 -10e-4,0.004 -0.002,0.002 -0.004,0.006 -0.001,0.002 -10e-5,0.004 -0.002,0.006 -0.002,0.002 -0.005,0.004 -0.006,0.006 -0.001,0.002 10e-4,0.003 -0.002,0.006 -0.003,0.003 -0.003,0.002 -0.006,0.004 -0.003,-1.5e-4 -7.9e-4,0.002 -0.002,0.003 -2.6e-4,2.7e-4 -0.001,-5.3e-4 -0.002,0 -5.3e-4,8e-4 5.3e-4,0.002 0,0.003 -2e-5,3e-5 -0.004,10e-4 -0.004,0.002 -0.001,0.002 -0.001,0.006 -0.003,0.007 -0.005,0.005 -0.01,0.004 -0.0161,0.006 -0.002,7.9e-4 -0.004,0.002 -0.006,0.003 -7.9e-4,2.6e-4 -0.002,-5.3e-4 -0.003,0 -5.3e-4,2.2e-4 5.3e-4,0.001 0,0.002 -7.9e-4,5.3e-4 -0.002,-5.3e-4 -0.003,0 -8e-4,5.3e-4 7.9e-4,0.003 -0.002,0.004 -0.003,0.002 -0.007,0.002 -0.0102,0.004 -5.3e-4,5.3e-4 -0.001,10e-4 -0.002,0.002 0,5.3e-4 2.7e-4,10e-4 0,0.002 -7.9e-4,7.9e-4 -0.002,5.3e-4 -0.003,0.002 -7.9e-4,0.001 -5.3e-4,0.003 -0.002,0.004 -0.002,0.002 -0.005,0.003 -0.006,0.006 -0.001,0.002 0.002,10e-4 -0.002,0.003 -5.3e-4,2.2e-4 -0.001,-2.6e-4 -0.002,0 -2.6e-4,2.7e-4 2.7e-4,0.001 0,0.002 -0.001,10e-4 -0.006,-5.3e-4 -0.007,0 -0.003,8e-4 -0.006,0.002 -0.007,0.003 -0.007,0.002 -0.0139,7.9e-4 -0.0204,0.003 -0.001,2.6e-4 -8e-4,0.002 -0.002,0.003 -0.001,10e-4 -0.003,2.6e-4 -0.004,0.002 -2.7e-4,2.6e-4 2.1e-4,10e-4 0,0.002 -0.003,0.006 10e-5,-0.002 -0.003,0.002 -8e-4,8e-4 7.9e-4,0.002 0,0.003 -2.7e-4,2.7e-4 -0.001,0 -0.002,0 -5.3e-4,5.3e-4 -0.001,8e-4 -0.002,0.002 -5.3e-4,7.9e-4 -7.9e-4,0.002 -0.002,0.003 -2.7e-4,2.6e-4 -0.004,0.001 -0.004,0.002 -0.003,0.003 0.005,-1.2e-4 -0.002,0.003 -5.3e-4,2.2e-4 -10e-4,-2.7e-4 -0.002,0 -2.7e-4,2.6e-4 2.6e-4,10e-4 0,0.002 -0.002,0.002 -0.007,8e-5 -0.009,0.003 -5.3e-4,7.9e-4 8e-4,0.002 0,0.003 -0.002,0.001 -0.0158,7.9e-4 -0.0175,0 -0.004,-0.002 -0.008,-0.006 -0.0117,-0.009 -0.01,-0.006 -0.0198,-0.0136 -0.0263,-0.0234 -0.002,-0.003 -0.003,-0.007 -0.004,-0.0102 -0.0126,-0.0226 -0.0153,-0.0507 -0.019,-0.076 -10e-4,-0.008 -0.002,-0.0156 -0.003,-0.0234 -7.9e-4,-0.0127 10e-4,-0.0254 0,-0.038 -7.9e-4,-0.0102 -0.007,-0.0291 0,-0.0395 0.0119,-0.0166 0.0324,-0.0175 0.0482,-0.0278 0.005,-0.003 0.01,-0.008 0.0146,-0.0117 0.004,-0.003 0.008,-0.005 0.0117,-0.007 0.003,-0.002 0.005,-0.004 0.007,-0.006 0.003,-0.002 0.008,5.3e-4 0.0117,0 0.003,-7.9e-4 0.007,-0.002 0.0102,-0.003 0.0121,-0.004 0.022,-0.0102 0.0351,-0.0117 0.009,-10e-4 0.0177,2.6e-4 0.0263,0 0.007,-2.7e-4 0.0136,-10e-4 0.0205,-0.002 0.008,-2.6e-4 0.0148,0.002 0.0219,-0.004 0.004,-0.003 0.005,-0.008 0.007,-0.0117 z"
       id="path35" /><path
       style="fill:#ff0000;fill-opacity:1;stroke:none;stroke-width:0.264583;stroke-opacity:0"
       d="m 28.726913,8.5568121 c -0.001,0.0126 0.003,0.0234 0.007,0.0351 0.003,0.01 -0.001,0.004 0.006,0.0175 0.005,0.009 0.0134,0.0148 0.0205,0.0219 0.002,0.002 0.002,0.004 0.004,0.006 0.002,0.002 0.005,10e-4 0.007,0.003 0.006,0.005 0.008,0.0143 0.0131,0.019 0.002,0.002 0.005,0.002 0.007,0.003 0.009,0.004 0.004,0.007 0.0161,0.0117 0.01,0.004 0.0184,10e-4 0.0278,0.003 0.004,7.9e-4 0.0101,0.003 0.0146,0.002 0.007,-0.002 0.0258,-0.0158 0.0307,-0.0219 0.004,-0.005 0.006,-0.0107 0.0117,-0.0146 0.005,-0.004 0.0116,-0.006 0.0161,-0.0102 8e-4,-7.9e-4 5.3e-4,-0.002 0.002,-0.003 10e-4,-7.9e-4 0.003,-7.9e-4 0.004,-0.002 0.001,-7.9e-4 0.002,-0.002 0.003,-0.003 0.003,-0.002 0.009,-0.005 0.0132,-0.006 10e-4,-2.3e-4 0.002,2.7e-4 0.003,0 0.003,5.3e-4 5.3e-4,-0.002 0.002,-0.003 8e-4,-5.3e-4 0.002,2.4e-4 0.003,0 0.002,-5.3e-4 0.004,-0.004 0.006,-0.006 0.003,-0.004 7.9e-4,-0.002 0.002,-0.007 7.9e-4,-0.006 0.004,-0.007 0.004,-0.0131 0.002,-0.0116 -2.6e-4,-0.0256 0.002,-0.0365 5.3e-4,-0.003 0.003,-0.0211 0.004,-0.0234 5.3e-4,-10e-4 0.002,-0.002 0.003,-0.003 1.2e-4,-2.3e-4 0.004,-0.0197 0.004,-0.0205 5.3e-4,-0.003 -5.3e-4,-0.007 0,-0.0102 0.001,-0.006 0.001,-0.003 0.003,-0.007 0.002,-0.005 -0.007,-0.0111 -0.009,-0.0146 -0.003,-0.005 5.3e-4,-0.008 -0.006,-0.0102 -0.005,-0.002 -0.0107,0 -0.0161,0 -0.0121,0 -0.025,5.3e-4 -0.0365,0.004 -0.007,0.002 -0.01,0.009 -0.0146,0.0131 -0.003,0.003 -0.007,0.005 -0.0102,0.007 -0.004,0.003 -0.007,0.008 -0.0117,0.0102 -0.003,0.002 -0.007,0.002 -0.0102,0.003 -0.007,0.003 -0.0122,0.005 -0.019,0.007 -0.0173,0.006 -0.0337,0.0132 -0.0511,0.019 -0.006,0.002 -0.0131,0.003 -0.019,0.006 -0.003,0.002 -0.005,0.005 -0.007,0.007 -2.2e-4,1.8e-4 -0.0108,-0.002 -0.0117,-0.002 -0.002,2.2e-4 -0.003,5.3e-4 -0.004,0.002 -7.9e-4,5.3e-4 5.3e-4,0.003 -0.002,0.004 -0.009,0.006 0.007,-0.0105 -0.0117,0.0117 z"
       id="path36" /><path
       style="fill:#ff0000;fill-opacity:1;stroke:none;stroke-width:0.264583;stroke-opacity:0"
       d="m 29.307753,2.8825924 c 0.01,0.008 -0.003,-10e-4 0.0103,0.005 0.002,7.9e-4 0.003,0.002 0.004,0.003 0.001,5.3e-4 0.003,5.3e-4 0.004,10e-4 10e-4,5.3e-4 0.002,0.002 0.003,0.002 0.001,5.3e-4 0.003,5.3e-4 0.004,10e-4 0.003,10e-4 0.009,0.007 0.0114,0.008 0.002,7.9e-4 0.004,5.3e-4 0.005,10e-4 0.001,5.3e-4 0.002,0.002 0.003,0.002 0.002,7.9e-4 0.008,10e-4 0.009,0.002 0.002,8e-4 0.003,0.002 0.004,0.003 0.002,0.002 0.005,0.002 0.007,0.003 7.9e-4,5.3e-4 0.001,0.002 0.002,0.002 0.003,0.002 0.005,7.9e-4 0.007,0.002 7.9e-4,5.3e-4 0.001,0.002 0.002,0.002 0.001,5.3e-4 0.002,5.3e-4 0.003,10e-4 0.003,0.002 0.004,0.003 0.007,0.005 10e-4,5.3e-4 0.002,5.3e-4 0.003,10e-4 2.6e-4,1.9e-4 -2.5e-4,7.9e-4 0,10e-4 7.9e-4,7.9e-4 0.004,0.002 0.005,0.003 2.6e-4,1.6e-4 7.9e-4,-2.6e-4 0.001,0 1.4e-4,2.1e-4 10e-4,0.005 0.002,0.005 5.3e-4,2.7e-4 0.002,-5.3e-4 0.002,0 7.9e-4,8e-4 2.6e-4,0.002 0.001,0.003 5.2e-4,5.3e-4 0.002,5.3e-4 0.002,10e-4 0.002,0.002 0.004,0.005 0.005,0.007 0.002,0.002 5.3e-4,-5.3e-4 0.003,0.002 0.002,0.002 7.9e-4,0.004 0.002,0.005 10e-4,0.002 0.003,0.002 0.004,0.005 5.3e-4,0.002 -2.6e-4,0.005 0,0.007 1.6e-4,0.001 7.9e-4,0.002 0.001,0.003 5.3e-4,0.004 -5.3e-4,0.008 0,0.0114 5.3e-4,0.004 0.002,0.007 0.001,0.0114 -5.3e-4,0.004 -0.002,0.008 -0.002,0.0124 -2.2e-4,0.002 2.7e-4,0.005 0,0.007 -7.9e-4,0.004 -0.003,0.008 -0.004,0.0124 -7.9e-4,0.003 -0.001,0.006 -0.002,0.009 0.002,0.007 -0.005,0.01 -0.007,0.0145 -8e-4,0.002 -0.001,0.004 -0.002,0.006 -7.9e-4,10e-4 -0.002,0.002 -0.003,0.003 -0.002,0.003 -0.003,0.008 -0.006,0.0103 -0.002,0.001 -0.0194,0.0103 -0.0196,0.0103 -0.006,0.002 -0.0118,0.002 -0.0176,0.004 -0.0189,0.005 -0.007,0.005 -0.0331,0.0103 -0.006,0.001 -0.0117,8e-4 -0.0176,0.001 -0.004,1.1e-4 -0.0347,2.7e-4 -0.0413,-0.001 -0.002,-5.3e-4 -0.0192,-0.009 -0.0217,-0.0103 -0.002,-10e-4 -0.004,-0.002 -0.006,-0.003 -0.002,-0.002 -0.0148,-0.0192 -0.0155,-0.0217 -5.3e-4,-0.002 -5.3e-4,-0.005 -0.001,-0.007 -0.002,-0.008 -0.003,-0.002 -0.004,-0.0124 -2.6e-4,-0.003 -7.9e-4,-0.0177 0,-0.0207 8e-4,-0.003 0.002,-0.005 0.003,-0.007 5.3e-4,-0.002 2.6e-4,-0.004 0.001,-0.005 0.001,-0.003 0.003,-0.005 0.004,-0.007 7.9e-4,-0.002 2.6e-4,-0.004 10e-4,-0.005 8e-4,-0.002 0.002,-0.003 0.003,-0.005 0.002,-0.003 0.002,-0.007 0.003,-0.0103 0.003,-0.009 0.001,-0.002 0.005,-0.0134 0.003,-0.008 0.004,-0.0167 0.007,-0.0248 0.001,-0.004 0.004,-0.008 0.005,-0.0114 0.002,-0.005 0.003,-0.01 0.005,-0.0145 0.003,-0.005 0.007,-0.0101 0.0103,-0.0155 0.002,-0.003 0.002,-0.006 0.004,-0.009 7.9e-4,-10e-4 0.002,-0.002 0.003,-0.003 5.3e-4,-5.3e-4 -5.2e-4,-0.002 0,-0.002 8e-4,-7.9e-4 0.002,-5.3e-4 0.003,-10e-4 0.003,-0.002 0.008,-0.003 0.0124,-0.002 5.3e-4,1.5e-4 5.3e-4,7.9e-4 0.001,10e-4 0.004,0.001 0.008,0 0.0114,0 z"
       id="path37" /></g></svg>
